<svg width="262" height="80" viewBox="0 0 262 80" fill="none" xmlns="http://www.w3.org/2000/svg">
<g clip-path="url(#clip0_376_146)">
<path d="M195.447 77.2633C195.477 77.84 195.336 78.4126 195.042 78.9071C194.748 79.4016 194.315 79.7953 193.799 80.0373C193.282 80.2794 192.706 80.3586 192.145 80.2649C191.583 80.1711 191.063 79.9087 190.65 79.5115C190.237 79.1142 189.951 78.6004 189.828 78.0364C189.706 77.4724 189.753 76.8841 189.963 76.3474C190.173 75.8107 190.537 75.3504 191.008 75.0258C191.478 74.7012 192.034 74.5273 192.603 74.5265C192.968 74.5109 193.332 74.57 193.674 74.7001C194.017 74.8302 194.33 75.0288 194.595 75.284C194.86 75.5392 195.072 75.8459 195.219 76.1859C195.365 76.5259 195.443 76.8922 195.447 77.2633ZM190.179 77.2633C190.167 77.7481 190.297 78.2256 190.553 78.635C190.809 79.0444 191.18 79.3672 191.617 79.5621C192.054 79.7571 192.539 79.8155 193.009 79.7298C193.479 79.6442 193.914 79.4184 194.257 79.0812C194.6 78.744 194.837 78.3107 194.937 77.8364C195.037 77.3622 194.995 76.8685 194.818 76.4182C194.64 75.968 194.335 75.5815 193.94 75.3081C193.546 75.0347 193.08 74.8868 192.603 74.8831C192.289 74.871 191.976 74.9238 191.682 75.0383C191.389 75.1528 191.122 75.3267 190.897 75.5493C190.672 75.7719 190.494 76.0386 190.373 76.3333C190.253 76.6279 190.193 76.9443 190.197 77.2633H190.179ZM191.935 78.8501H191.531V75.6854H192.796C193.533 75.6854 193.867 75.9885 193.867 76.5769C193.867 76.8043 193.782 77.0233 193.629 77.189C193.475 77.3548 193.265 77.4547 193.042 77.4683L194.043 78.8501H193.568L192.646 77.4416H191.962L191.935 78.8501ZM192.471 77.0672C192.971 77.0672 193.463 77.0672 193.463 76.5145C193.463 75.9617 193.077 75.9707 192.682 75.9707H191.935V77.1117L192.471 77.0672Z" fill="#282828"/>
<path d="M0 1.78293H26.2176C32.3066 1.74903 38.379 2.43109 44.3135 3.81547C49.6625 5.02713 54.7307 7.27617 59.2397 10.4391C63.5304 13.5077 67.0226 17.5888 69.416 22.3312C71.9212 27.2164 73.1709 33.1446 73.1651 40.1159C73.2833 45.7736 72.0353 51.3746 69.5301 56.4297C67.15 61.0548 63.7955 65.0907 59.7051 68.2505C55.434 71.5305 50.6115 73.9953 45.4725 75.5249C39.9831 77.1892 34.2819 78.0212 28.5531 77.9942H0V1.78293ZM17.4813 62.4916H26.5512C30.3378 62.5198 34.1158 62.1222 37.8162 61.306C41.0524 60.6267 44.1197 59.2894 46.8334 57.3746C49.3973 55.5203 51.4597 53.04 52.8302 50.1627C54.3828 46.7375 55.1312 42.9932 55.0165 39.2244C55.0963 35.8454 54.3449 32.4995 52.8302 29.4896C51.4195 26.7771 49.4053 24.4359 46.9475 22.6521C44.3219 20.7758 41.3783 19.4068 38.2639 18.6138C34.8452 17.7027 31.3237 17.2501 27.7892 17.2677H17.4813V62.4916Z" fill="#282828"/>
<path d="M159.469 40.8024V51.5H167.986V80.0269H184.773V33.323L159.469 40.8024Z" fill="#282828"/>
<path d="M133.624 22.4203C135.849 20.1986 138.496 18.4606 141.404 17.3122C144.625 16.0589 148.051 15.4387 151.501 15.4847V15.5739C154.959 15.5245 158.395 16.1447 161.624 17.4014C163.363 18.0886 165.014 18.9865 166.541 20.0758L182.021 10.7421C178.111 7.24057 173.557 4.55924 168.622 2.85269C163.122 0.956704 157.344 0.0222569 151.536 0.0891499V3.51551e-06C145.714 -0.0610213 139.924 0.885589 134.415 2.7992C131.58 3.79971 128.859 5.10887 126.302 6.70381V20.0045H113.65C113.044 21.1099 112.482 22.251 111.973 23.4455C109.792 28.6798 108.706 34.3172 108.785 40C108.705 45.6858 109.791 51.3264 111.973 56.5634C114.005 61.3763 117.039 65.6856 120.867 69.1955C124.812 72.7583 129.418 75.4859 134.415 77.2186C139.924 79.1291 145.714 80.0726 151.536 80.0089H164.469V64.5153H151.536C148.075 64.5658 144.636 63.9456 141.404 62.6878C138.492 61.5462 135.844 59.8073 133.624 57.5797C131.453 55.3798 129.758 52.7444 128.646 49.8418C127.456 46.7149 126.861 43.3876 126.89 40.0357C126.863 36.684 127.459 33.3572 128.646 30.2296C129.748 27.3011 131.445 24.6406 133.624 22.4203Z" fill="#282828"/>
<path d="M49.4922 1.78293C53.7235 3.14852 57.7282 5.153 61.3717 7.72899C64.7545 10.1627 67.6905 13.18 70.0465 16.6436H81.97V77.9942H99.4425V16.6258H122.78V1.78293H49.4922Z" fill="#282828"/>
<path d="M204.367 1.29274L130.648 45.7857L188.281 28.7588V51.4643L262 6.97137L204.367 23.9983V1.29274Z" fill="#6ADC12"/>
</g>
<defs>
<clipPath id="clip0_376_146">
<rect width="262" height="80" fill="white"/>
</clipPath>
</defs>
</svg>
